<svg width="396" height="57" viewBox="0 0 396 57" fill="none" xmlns="http://www.w3.org/2000/svg">
<path d="M-5.53131e-05 18.4111C-5.53131e-05 21.6648 2.63763 24.3025 5.89138 24.3025C9.14512 24.3025 11.7828 21.6648 11.7828 18.4111C11.7828 15.1573 9.14512 12.5197 5.89138 12.5197C2.63763 12.5197 -5.53131e-05 15.1573 -5.53131e-05 18.4111Z" fill="#FFCC33"/>
<path d="M-5.53131e-05 47.8682C-5.53131e-05 51.122 2.63763 53.7597 5.89138 53.7597C9.14512 53.7597 11.7828 51.122 11.7828 47.8682C11.7828 44.6145 9.14512 41.9768 5.89138 41.9768C2.63763 41.9768 -5.53131e-05 44.6145 -5.53131e-05 47.8682Z" fill="#FFCC33"/>
<path d="M2.20948 33.1398C2.20948 35.1735 3.85805 36.822 5.89168 36.822C7.9253 36.822 9.57388 35.1735 9.57388 33.1398C9.57388 31.1062 7.9253 29.4576 5.89168 29.4576C3.85805 29.4576 2.20948 31.1062 2.20948 33.1398Z" fill="#FFCC33"/>
<path d="M2.20948 3.6822C2.20948 5.71583 3.85805 7.36441 5.89168 7.36441C7.9253 7.36441 9.57388 5.71583 9.57388 3.6822C9.57388 1.64858 7.9253 0 5.89168 0C3.85805 0 2.20948 1.64858 2.20948 3.6822Z" fill="#FFCC33"/>
<path d="M22.6083 38.5889C22.6083 41.8427 25.246 44.4804 28.4997 44.4804C31.7535 44.4804 34.3912 41.8427 34.3912 38.5889C34.3912 35.3352 31.7535 32.6975 28.4997 32.6975C25.246 32.6975 22.6083 35.3352 22.6083 38.5889Z" fill="#FFCC33"/>
<path d="M24.8178 53.3178C24.8178 55.3514 26.4664 57 28.5 57C30.5337 57 32.1823 55.3514 32.1823 53.3178C32.1823 51.2842 30.5337 49.6356 28.5 49.6356C26.4664 49.6356 24.8178 51.2842 24.8178 53.3178Z" fill="#FFCC33"/>
<path d="M24.8178 23.8605C24.8178 25.8942 26.4664 27.5428 28.5 27.5428C30.5337 27.5428 32.1823 25.8942 32.1823 23.8605C32.1823 21.8269 30.5337 20.1783 28.5 20.1783C26.4664 20.1783 24.8178 21.8269 24.8178 23.8605Z" fill="#FFCC33"/>
<path d="M24.8178 9.13203C24.8178 11.1657 26.4664 12.8142 28.5 12.8142C30.5337 12.8142 32.1823 11.1657 32.1823 9.13203C32.1823 7.09841 30.5337 5.44983 28.5 5.44983C26.4664 5.44983 24.8178 7.09841 24.8178 9.13203Z" fill="#FFCC33"/>
<path d="M45.2173 18.4111C45.2173 21.6648 47.855 24.3025 51.1088 24.3025C54.3625 24.3025 57.0002 21.6648 57.0002 18.4111C57.0002 15.1573 54.3625 12.5197 51.1088 12.5197C47.855 12.5197 45.2173 15.1573 45.2173 18.4111Z" fill="#FFCC33"/>
<path d="M47.4269 3.6822C47.4269 5.71583 49.0754 7.36441 51.1091 7.36441C53.1427 7.36441 54.7913 5.71583 54.7913 3.6822C54.7913 1.64858 53.1427 0 51.1091 0C49.0754 0 47.4269 1.64858 47.4269 3.6822Z" fill="#FFCC33"/>
<path d="M47.4269 33.1398C47.4269 35.1735 49.0754 36.822 51.1091 36.822C53.1427 36.822 54.7913 35.1735 54.7913 33.1398C54.7913 31.1062 53.1427 29.4576 51.1091 29.4576C49.0754 29.4576 47.4269 31.1062 47.4269 33.1398Z" fill="#FFCC33"/>
<path d="M47.4269 47.8681C47.4269 49.9017 49.0754 51.5503 51.1091 51.5503C53.1427 51.5503 54.7913 49.9017 54.7913 47.8681C54.7913 45.8345 53.1427 44.1859 51.1091 44.1859C49.0754 44.1859 47.4269 45.8345 47.4269 47.8681Z" fill="#FFCC33"/>
</svg>
